<?xml version="1.0" encoding="UTF-8"?>
<svg version="1.1" xmlns="http://www.w3.org/2000/svg" width="466" height="191">
<path d="M0 0 C153.78 0 307.56 0 466 0 C466 63.03 466 126.06 466 191 C312.22 191 158.44 191 0 191 C0 127.97 0 64.94 0 0 Z " fill="#FCFCFC" transform="translate(0,0)"/>
<path d="M0 0 C54.45 0 108.9 0 165 0 C165 1.65 165 3.3 165 5 C112.2 5 59.4 5 5 5 C5 50.87 5 96.74 5 144 C149.54 144 294.08 144 443 144 C443 98.13 443 52.26 443 5 C390.2 5 337.4 5 283 5 C283 3.35 283 1.7 283 0 C337.78 0 392.56 0 449 0 C449 49.17 449 98.34 449 149 C300.83 149 152.66 149 0 149 C0 99.83 0 50.66 0 0 Z " fill="#8B7AAE" transform="translate(9,37)"/>
<path d="M0 0 C54.78 0 109.56 0 166 0 C166 49.17 166 98.34 166 149 C17.83 149 -130.34 149 -283 149 C-283 148.67 -283 148.34 -283 148 C-81.535 147.505 -81.535 147.505 124 147 C123.67 146.01 123.34 145.02 123 144 C135.21 144 147.42 144 160 144 C160 98.13 160 52.26 160 5 C107.2 5 54.4 5 0 5 C0 3.35 0 1.7 0 0 Z " fill="#9687B6" transform="translate(292,37)"/>
<path d="M0 0 C123.75 0 247.5 0 375 0 C375 1.65 375 3.3 375 5 C251.25 5 127.5 5 0 5 C0 3.35 0 1.7 0 0 Z " fill="#FDFDFD" transform="translate(34,186)"/>
<path d="M0 0 C3.1602296 0.60693151 5.11104874 1.66662077 7.6875 3.5625 C11.42175151 5.92752596 14.27073178 6.7964017 18.69140625 6.57421875 C22.37606622 5.65772972 25.08280885 3.61330928 28.0546875 1.3125 C30 0 30 0 33 0 C33 3.9787003 32.80479527 6.04950903 30.1875 9.140625 C28.75493688 10.52202515 27.29699156 11.8776861 25.8125 13.203125 C22.74821843 16.24099035 22.77683314 19.56702619 22.4375 23.6875 C22.35371094 24.68136719 22.26992187 25.67523438 22.18359375 26.69921875 C22.09271484 27.83810547 22.09271484 27.83810547 22 29 C23.97207551 28.95959277 23.97207551 28.95959277 26 28 C27.16172706 25.36561786 27.16172706 25.36561786 27.875 22.125 C29.91706292 14.79617339 32.79588364 5.93106391 39 1 C39.99 1 40.98 1 42 1 C41.98839844 1.71027344 41.97679687 2.42054687 41.96484375 3.15234375 C41.95582031 4.07144531 41.94679688 4.99054687 41.9375 5.9375 C41.92589844 6.85402344 41.91429687 7.77054688 41.90234375 8.71484375 C41.74050951 10.96593327 41.74050951 10.96593327 43 12 C45.48341801 12.21110519 47.94956713 12.37594795 50.4375 12.5 C57.73142415 12.86571207 57.73142415 12.86571207 60 14 C59.67 14.99 59.34 15.98 59 17 C57.48019531 17.16435547 57.48019531 17.16435547 55.9296875 17.33203125 C54.57805539 17.49159893 53.22649657 17.65178833 51.875 17.8125 C51.20984375 17.88275391 50.5446875 17.95300781 49.859375 18.02539062 C45.35787004 18.57704564 41.86980173 19.62874167 38 22 C37.34 22.99 36.68 23.98 36 25 C36.66 25 37.32 25 38 25 C38 26.32 38 27.64 38 29 C42.29 29 46.58 29 51 29 C51 31 51 31 49.5 32.625 C49.005 33.07875 48.51 33.5325 48 34 C48.825 34.45375 49.65 34.9075 50.5 35.375 C51.325 35.91125 52.15 36.4475 53 37 C53 37.66 53 38.32 53 39 C28.55864384 39.97526795 4.44135616 39.97526795 -20 39 C-20.33 38.34 -20.66 37.68 -21 37 C-19.02 36.01 -17.04 35.02 -15 34 C-16.32 32.35 -17.64 30.7 -19 29 C-15.73086376 27.96884721 -13.13958652 28.0361016 -9.75 28.4375 C-8.85796875 28.53933594 -7.9659375 28.64117187 -7.046875 28.74609375 C-6.37140625 28.82988281 -5.6959375 28.91367187 -5 29 C-4.14025199 26.70705512 -4.14025199 26.70705512 -4 24 C-6.28501023 20.64865166 -8.48697104 19.69536913 -12.328125 18.953125 C-13.96628758 18.70211622 -15.60714444 18.46819175 -17.25 18.25 C-18.51070312 18.06244141 -18.51070312 18.06244141 -19.796875 17.87109375 C-21.86245421 17.56595137 -23.93099497 17.28097599 -26 17 C-26 15.68 -26 14.36 -26 13 C-18.08 12.505 -18.08 12.505 -10 12 C-9.21052896 8.0526448 -8.90797392 4.95712151 -9 1 C-6.44151161 1.36864241 -5.25673409 1.72356764 -3.47265625 3.64453125 C1.55661859 11.37651888 6.47638895 19.54227825 6 29 C7.65 29 9.3 29 11 29 C11.07396848 22.65984491 11.11476021 17.48741826 6.6875 12.625 C5.46366921 11.41126266 4.23482918 10.20254606 3 9 C1.41472654 7.03961958 0.2367516 5.21584662 -1 3 C-0.67 2.01 -0.34 1.02 0 0 Z " fill="#9282B3" transform="translate(218,30)"/>
<path d="M0 0 C18.97435897 0 18.97435897 0 24 4 C25.51462283 8.30471753 25.32028477 10.23410163 23.5625 14.4375 C23.046875 15.283125 22.53125 16.12875 22 17 C22.66 17.495 23.32 17.99 24 18.5 C26.30286741 21.37858426 26.63590329 23.36373339 26.46484375 27.03125 C25.68039603 30.3536168 23.60264542 31.95506431 21 34 C18.65147472 35.17426264 17.26225935 35.11508173 14.6484375 35.09765625 C13.49867432 35.09390991 13.49867432 35.09390991 12.32568359 35.09008789 C10.86509521 35.07643188 10.86509521 35.07643188 9.375 35.0625 C6.28125 35.041875 3.1875 35.02125 0 35 C0 23.45 0 11.9 0 0 Z " fill="#0E0E0E" transform="translate(287,95)"/>
<path d="M0 0 C3.1602296 0.60693151 5.11104874 1.66662077 7.6875 3.5625 C11.42175151 5.92752596 14.27073178 6.7964017 18.69140625 6.57421875 C22.37606622 5.65772972 25.08280885 3.61330928 28.0546875 1.3125 C30 0 30 0 33 0 C33 3.77999472 32.99205482 6.00127217 30.2578125 8.75390625 C29.20207031 9.64916016 29.20207031 9.64916016 28.125 10.5625 C22.56069905 15.59829208 21.96697717 21.82825269 21 29 C20.67 29 20.34 29 20 29 C19.1387481 15.02858022 19.1387481 15.02858022 22.25 11.375 C23.61125 10.199375 23.61125 10.199375 25 9 C25.763125 8.21625 26.52625 7.4325 27.3125 6.625 C27.869375 6.08875 28.42625 5.5525 29 5 C27.6078125 5.99 27.6078125 5.99 26.1875 7 C21.31243418 9.76880006 16.46340037 9.83190869 11 9 C8.30967864 7.92201286 6.38352307 6.69494974 4 5 C5.11375 6.0828125 5.11375 6.0828125 6.25 7.1875 C12.86074231 13.94848646 12.86074231 13.94848646 13.4609375 18.48046875 C13.41839844 20.31544922 13.41839844 20.31544922 13.375 22.1875 C13.36210937 23.41855469 13.34921875 24.64960937 13.3359375 25.91796875 C13 29 13 29 11 31 C5.40391464 31.54863582 1.91046959 30.40512796 -3 28 C-3 30.31 -3 32.62 -3 35 C5.60397419 37.13031092 14.1849081 37.58440013 23 38 C19.92222716 40.05184856 19.42648435 40.24373768 15.98754883 40.13525391 C15.18694534 40.11508209 14.38634186 40.09491028 13.56147766 40.0741272 C12.70201035 40.04193085 11.84254303 40.0097345 10.95703125 39.9765625 C10.0734343 39.95153656 9.18983734 39.92651062 8.27946472 39.90072632 C5.45675201 39.81854151 2.63474056 39.72194628 -0.1875 39.625 C-2.10088279 39.56675887 -4.01429438 39.50945563 -5.92773438 39.453125 C-10.61889306 39.31296494 -15.30947363 39.15987917 -20 39 C-20.33 38.34 -20.66 37.68 -21 37 C-19.02 36.01 -17.04 35.02 -15 34 C-16.32 32.35 -17.64 30.7 -19 29 C-15.73086376 27.96884721 -13.13958652 28.0361016 -9.75 28.4375 C-8.85796875 28.53933594 -7.9659375 28.64117187 -7.046875 28.74609375 C-6.37140625 28.82988281 -5.6959375 28.91367187 -5 29 C-4.14025199 26.70705512 -4.14025199 26.70705512 -4 24 C-6.28501023 20.64865166 -8.48697104 19.69536913 -12.328125 18.953125 C-13.96628758 18.70211622 -15.60714444 18.46819175 -17.25 18.25 C-18.51070312 18.06244141 -18.51070312 18.06244141 -19.796875 17.87109375 C-21.86245421 17.56595137 -23.93099497 17.28097599 -26 17 C-26 15.68 -26 14.36 -26 13 C-18.08 12.505 -18.08 12.505 -10 12 C-9.21052896 8.0526448 -8.90797392 4.95712151 -9 1 C-6.44151161 1.36864241 -5.25673409 1.72356764 -3.47265625 3.64453125 C1.55661859 11.37651888 6.47638895 19.54227825 6 29 C7.65 29 9.3 29 11 29 C11.07396848 22.65984491 11.11476021 17.48741826 6.6875 12.625 C5.46366921 11.41126266 4.23482918 10.20254606 3 9 C1.41472654 7.03961958 0.2367516 5.21584662 -1 3 C-0.67 2.01 -0.34 1.02 0 0 Z " fill="#8E7EB0" transform="translate(218,30)"/>
<path d="M0 0 C2.64 0 5.28 0 8 0 C11.60251779 6.45968707 13.41429736 12.79226072 15 20 C15.66 20 16.32 20 17 20 C17.1134375 19.49855469 17.226875 18.99710938 17.34375 18.48046875 C18.25292401 15.04400746 19.37737238 11.68359037 20.5 8.3125 C20.72558594 7.62349609 20.95117188 6.93449219 21.18359375 6.22460938 C22.88016615 1.11983385 22.88016615 1.11983385 24 0 C26.64 0 29.28 0 32 0 C32 11.55 32 23.1 32 35 C29.69 35 27.38 35 25 35 C25 28.07 25 21.14 25 14 C23.02 19.94 21.04 25.88 19 32 C17.02 32 15.04 32 13 32 C11.02 26.39 9.04 20.78 7 15 C7 21.6 7 28.2 7 35 C4.69 35 2.38 35 0 35 C0 23.45 0 11.9 0 0 Z " fill="#0D0D0D" transform="translate(238,95)"/>
<path d="M0 0 C3.3 0 6.6 0 10 0 C11.1061005 3.29102779 12.20992104 6.58279239 13.3125 9.875 C13.7755957 11.25171875 13.7755957 11.25171875 14.24804688 12.65625 C15.78136826 17.24007392 17.28941863 21.83158002 18.73046875 26.4453125 C18.97563232 27.22664551 19.2207959 28.00797852 19.47338867 28.81298828 C20 31 20 31 20 35 C17.36 35 14.72 35 12 35 C11.34 32.69 10.68 30.38 10 28 C6.37 27.67 2.74 27.34 -1 27 C-1.33 29.64 -1.66 32.28 -2 35 C-4.64 35 -7.28 35 -10 35 C-9.4402784 28.98640571 -8.12589181 23.74796088 -6.125 18.0625 C-5.86847656 17.31548828 -5.61195312 16.56847656 -5.34765625 15.79882812 C-4.83251031 14.2986921 -4.31463809 12.7994893 -3.79394531 11.30126953 C-2.49787792 7.5445871 -1.25105136 3.7718824 0 0 Z " fill="#0D0D0D" transform="translate(93,95)"/>
<path d="M0 0 C7.26 0 14.52 0 22 0 C22 2.31 22 4.62 22 7 C17.38 7 12.76 7 8 7 C8 9.31 8 11.62 8 14 C11.96 14 15.92 14 20 14 C20 15.98 20 17.96 20 20 C16.04 20 12.08 20 8 20 C8 22.64 8 25.28 8 28 C12.95 28 17.9 28 23 28 C23 30.31 23 32.62 23 35 C15.41 35 7.82 35 0 35 C0 23.45 0 11.9 0 0 Z " fill="#0F0F0F" transform="translate(363,95)"/>
<path d="M0 0 C7.26 0 14.52 0 22 0 C22 2.31 22 4.62 22 7 C17.38 7 12.76 7 8 7 C8 9.31 8 11.62 8 14 C11.96 14 15.92 14 20 14 C20 15.98 20 17.96 20 20 C16.04 20 12.08 20 8 20 C8 22.64 8 25.28 8 28 C12.95 28 17.9 28 23 28 C23 30.31 23 32.62 23 35 C15.41 35 7.82 35 0 35 C0 23.45 0 11.9 0 0 Z " fill="#101010" transform="translate(200,95)"/>
<path d="M0 0 C5.28712631 0.02065284 7.84824101 0.88395169 11.8125 4.3125 C10.8225 5.9625 9.8325 7.6125 8.8125 9.3125 C2.8725 8.3225 2.8725 8.3225 -3.1875 7.3125 C-2.8575 8.9625 -2.5275 10.6125 -2.1875 12.3125 C-0.06580291 13.64359286 -0.06580291 13.64359286 2.5625 14.375 C10.27343321 17.18098429 10.27343321 17.18098429 12.8125 20.3125 C13.52275476 23.46129612 13.51554824 26.1628439 12.8125 29.3125 C10.04093275 33.03431887 7.30309938 35.13639064 2.8125 36.3125 C-3.26419844 37.00042813 -7.0742476 35.28748322 -12.1875 32.3125 C-11.81640625 30.390625 -11.81640625 30.390625 -11.1875 28.3125 C-9.125 27.0625 -9.125 27.0625 -7.1875 26.3125 C-6.1975 26.9725 -5.2075 27.6325 -4.1875 28.3125 C-1.90101152 28.55357326 -1.90101152 28.55357326 0.5 28.4375 C1.30824219 28.41945313 2.11648437 28.40140625 2.94921875 28.3828125 C3.56410156 28.35960938 4.17898437 28.33640625 4.8125 28.3125 C4.76265081 26.39043687 4.76265081 26.39043687 3.8125 24.3125 C1.15052558 22.65086287 1.15052558 22.65086287 -2.0625 21.3125 C-8.99780199 18.23757093 -8.99780199 18.23757093 -11.1875 14.3125 C-11.83185374 9.23821429 -11.83185374 9.23821429 -11.1875 6.3125 C-8.75 3.375 -8.75 3.375 -6.1875 1.3125 C-4.47957001 -0.39542999 -2.33206519 0.05979654 0 0 Z " fill="#0E0E0E" transform="translate(173.1875,94.6875)"/>
<path d="M0 0 C3.1875 1.5 3.1875 1.5 5 3 C4.49396008 5.16874252 4.00016187 6.99967627 3 9 C2.505 8.835 2.01 8.67 1.5 8.5 C-2.03444089 7.79311182 -5.39690701 7.93994845 -9 8 C-8.90816601 9.93948708 -8.90816601 9.93948708 -8 12 C-5.59959779 13.43932897 -5.59959779 13.43932897 -2.6875 14.5 C1.38901215 16.11101148 4.20617888 17.55994455 7 21 C7.47688189 24.74692915 7.29862974 27.22707598 5.9375 30.75 C2.52183597 34.71657758 -1.39997234 35.82856846 -6.5 36.375 C-10.7257434 35.92224178 -13.29035269 35.07740249 -17 33 C-18.125 31 -18.125 31 -18 29 C-16.5625 27.25 -16.5625 27.25 -15 26 C-14.360625 26.33 -13.72125 26.66 -13.0625 27 C-8.98763159 28.33056928 -5.24809575 28.16659199 -1 28 C-1.04984919 26.07793687 -1.04984919 26.07793687 -2 24 C-4.66197442 22.33836287 -4.66197442 22.33836287 -7.875 21 C-14.84392977 17.91016126 -14.84392977 17.91016126 -17 14 C-17.71701339 10.89294196 -17.65465678 8.11794163 -17 5 C-12.50475234 -0.95316582 -7.10506563 -1.03660532 0 0 Z " fill="#0D0D0D" transform="translate(142,95)"/>
<path d="M0 0 C2.31 0 4.62 0 7 0 C7 9.24 7 18.48 7 28 C11.62 28 16.24 28 21 28 C21 29.98 21 31.96 21 34 C14.07 34 7.14 34 0 34 C0 22.78 0 11.56 0 0 Z " fill="#020202" transform="translate(328,96)"/>
<path d="M0 0 C-0.01160156 0.71027344 -0.02320313 1.42054687 -0.03515625 2.15234375 C-0.04417969 3.07144531 -0.05320312 3.99054687 -0.0625 4.9375 C-0.07410156 5.85402344 -0.08570313 6.77054688 -0.09765625 7.71484375 C-0.25949049 9.96593327 -0.25949049 9.96593327 1 11 C3.48341801 11.21110519 5.94956713 11.37594795 8.4375 11.5 C15.73142415 11.86571207 15.73142415 11.86571207 18 13 C17.67 13.99 17.34 14.98 17 16 C15.98679687 16.10957031 14.97359375 16.21914063 13.9296875 16.33203125 C12.57805539 16.49159893 11.22649657 16.65178833 9.875 16.8125 C9.20984375 16.88275391 8.5446875 16.95300781 7.859375 17.02539062 C3.35787004 17.57704564 -0.13019827 18.62874167 -4 21 C-4.66 21.99 -5.32 22.98 -6 24 C-5.34 24.33 -4.68 24.66 -4 25 C-4.7425 25.144375 -5.485 25.28875 -6.25 25.4375 C-8.92165768 25.94746381 -8.92165768 25.94746381 -11.1875 26.625 C-13 27 -13 27 -15 26 C-14.49827949 20.19220497 -12.80306506 15.89495652 -10.125 10.75 C-9.77308594 10.04359375 -9.42117187 9.3371875 -9.05859375 8.609375 C-4.67237808 0 -4.67237808 0 0 0 Z " fill="#9687B6" transform="translate(260,31)"/>
<path d="M0 0 C2.55848839 0.36864241 3.74326591 0.72356764 5.52734375 2.64453125 C10.06376496 9.61880763 15 17.5074494 15 26 C13.35 26.33 11.7 26.66 10 27 C9.12109375 25.20963542 8.2421875 23.41927083 7.36328125 21.62890625 C5.41060592 19.29576696 4.01698047 19.38514644 1 19 C-0.47599565 18.75305292 -1.95118961 18.50129078 -3.42578125 18.24609375 C-5.05454976 17.97573137 -6.68345987 17.70622091 -8.3125 17.4375 C-9.14845703 17.29892578 -9.98441406 17.16035156 -10.84570312 17.01757812 C-12.89701315 16.67764675 -14.94849007 16.33872282 -17 16 C-17 14.68 -17 13.36 -17 12 C-9.08 11.505 -9.08 11.505 -1 11 C-0.21052896 7.0526448 0.09202608 3.95712151 0 0 Z " fill="#9383B4" transform="translate(209,31)"/>
<path d="M0 0 C0.79921875 0.2165625 1.5984375 0.433125 2.421875 0.65625 C15.51420341 3.97543185 25.93698788 3.24642905 39 0 C39 2.31 39 4.62 39 7 C26.82206647 11.50637188 12.09432255 12.10514118 0 7 C0 4.69 0 2.38 0 0 Z " fill="#F4F2F6" transform="translate(215,58)"/>
<path d="M0 0 C3.1602296 0.60693151 5.11104874 1.66662077 7.6875 3.5625 C11.42175151 5.92752596 14.27073178 6.7964017 18.69140625 6.57421875 C22.37606622 5.65772972 25.08280885 3.61330928 28.0546875 1.3125 C30 0 30 0 33 0 C33 3.77999472 32.99205482 6.00127217 30.2578125 8.75390625 C29.55398437 9.35074219 28.85015625 9.94757812 28.125 10.5625 C22.56069905 15.59829208 21.96697717 21.82825269 21 29 C20.67 29 20.34 29 20 29 C19.1387481 15.02858022 19.1387481 15.02858022 22.25 11.375 C23.1575 10.59125 24.065 9.8075 25 9 C25.763125 8.21625 26.52625 7.4325 27.3125 6.625 C27.869375 6.08875 28.42625 5.5525 29 5 C28.071875 5.66 27.14375 6.32 26.1875 7 C21.31243418 9.76880006 16.46340037 9.83190869 11 9 C8.30967864 7.92201286 6.38352307 6.69494974 4 5 C4.7425 5.721875 5.485 6.44375 6.25 7.1875 C12.86074231 13.94848646 12.86074231 13.94848646 13.4609375 18.48046875 C13.43257812 19.70378906 13.40421875 20.92710938 13.375 22.1875 C13.36210937 23.41855469 13.34921875 24.64960937 13.3359375 25.91796875 C13 29 13 29 11 31 C7.375 31.125 7.375 31.125 4 31 C6.64738916 29.5393715 7.89448334 29 11 29 C11.07396848 22.65984491 11.11476021 17.48741826 6.6875 12.625 C5.46366921 11.41126266 4.23482918 10.20254606 3 9 C1.41472654 7.03961958 0.2367516 5.21584662 -1 3 C-0.67 2.01 -0.34 1.02 0 0 Z " fill="#9586B6" transform="translate(218,30)"/>
<path d="M0 0 C4 2 4 2 5.8125 3.046875 C10.63660342 5.14880578 16.59914901 4.86415607 21.49609375 3.1015625 C23.37763577 2.15576063 25.19722878 1.08846565 27 0 C25.62409722 3.12885585 24.78546308 4.17431125 22 6.4375 C18.15394285 9.72267382 17.24655917 12.1461542 16.5859375 17.11328125 C16.51632813 18.16902344 16.44671875 19.22476563 16.375 20.3125 C16.30023438 21.38113281 16.22546875 22.44976562 16.1484375 23.55078125 C16.09945312 24.35902344 16.05046875 25.16726562 16 26 C14.35 26 12.7 26 11 26 C10.96132812 24.82244141 10.96132812 24.82244141 10.921875 23.62109375 C10.56141778 16.94444299 10.04478543 12.39304724 6 7 C4.36345179 5.62986661 2.70196405 4.2879728 1 3 C0.67 2.01 0.34 1.02 0 0 Z " fill="#F6F5F9" transform="translate(221,34)"/>
<path d="M0 0 C0 0.99 0 1.98 0 3 C-0.598125 3.515625 -1.19625 4.03125 -1.8125 4.5625 C-4.19133656 7.2132036 -4.58087303 8.67537726 -5.4375 12.0625 C-6.72605883 16.74127778 -6.72605883 16.74127778 -9.25 19.125 C-12.61227362 20.19481433 -15.49343483 20.20626854 -19 20 C-18.505 18.515 -18.505 18.515 -18 17 C-17.34 17 -16.68 17 -16 17 C-15.84144531 16.18015625 -15.68289062 15.3603125 -15.51953125 14.515625 C-13.60838024 5.68843027 -13.60838024 5.68843027 -10.625 2.3125 C-6.95411541 0.4770577 -4.07595005 0 0 0 Z " fill="#9889B7" transform="translate(258,6)"/>
<path d="M0 0 C4.55657366 0.42386732 8.0983498 1.60580556 12 4 C14.20005126 6.9700692 14.64512717 10.62055727 15.33984375 14.1953125 C15.9399569 16.38669646 15.9399569 16.38669646 19 18 C19 18.66 19 19.32 19 20 C11.95522388 20.47761194 11.95522388 20.47761194 8.125 18.5625 C5.55012645 15.45750543 5.25828768 13.15700047 4.6015625 9.26171875 C3.63727198 5.63623685 1.58712702 3.65520931 -1 1 C-0.67 0.67 -0.34 0.34 0 0 Z " fill="#9889B7" transform="translate(211,6)"/>
<path d="M0 0 C0 0.66 0 1.32 0 2 C-0.70125 2.350625 -1.4025 2.70125 -2.125 3.0625 C-5.72004493 5.48524767 -7.34423296 8.27739965 -9.5703125 11.94140625 C-11 14 -11 14 -14 16 C-16.26171875 16.1953125 -16.26171875 16.1953125 -18.6875 16.125 C-19.89986328 16.09792969 -19.89986328 16.09792969 -21.13671875 16.0703125 C-21.75160156 16.04710938 -22.36648437 16.02390625 -23 16 C-21.7589311 12.2767933 -19.75859975 10.75859975 -17 8 C-16.525625 7.13375 -16.05125 6.2675 -15.5625 5.375 C-11.75318894 -0.41515281 -6.2703826 -0.32433013 0 0 Z " fill="#9485B5" transform="translate(273,11)"/>
<path d="M0 0 C5.55600952 -0.2873798 9.33469289 -0.37490302 14 3 C15.96625515 5.53336453 17.74917309 8.12371493 19.484375 10.8203125 C20.81699924 13.10809818 20.81699924 13.10809818 23 14 C23 14.66 23 15.32 23 16 C15.13142857 16.61714286 15.13142857 16.61714286 11.25 14.5 C8.82093548 11.80103942 7.04173844 9.02491076 5.203125 5.90625 C3.74930229 3.60279065 2.03151609 1.80579208 0 0 Z " fill="#9585B5" transform="translate(196,11)"/>
<path d="M0 0 C2.64 0 5.28 0 8 0 C8 0.33 8 0.66 8 1 C5.69 1 3.38 1 1 1 C1 7.27 1 13.54 1 20 C1.99 19.34 2.98 18.68 4 18 C4.73606499 14.43230448 4.73606499 14.43230448 5 11 C5.66 11.33 6.32 11.66 7 12 C7 19.59 7 27.18 7 35 C4.69 35 2.38 35 0 35 C0 23.45 0 11.9 0 0 Z " fill="#1D1D1D" transform="translate(238,95)"/>
<path d="M0 0 C2.64 0 5.28 0 8 0 C8.50471197 1.76949612 9.00360685 3.54065223 9.5 5.3125 C9.7784375 6.29863281 10.056875 7.28476563 10.34375 8.30078125 C11 11 11 11 11 14 C9.35 14 7.7 14 6 14 C6 12.68 6 11.36 6 10 C5.34 10 4.68 10 4 10 C4 12.31 4 14.62 4 17 C2.02 17.99 2.02 17.99 0 19 C0 12.73 0 6.46 0 0 Z " fill="#040404" transform="translate(239,96)"/>
<path d="M0 0 C0.99 0 1.98 0 3 0 C5.67156811 4.56392885 6.5557956 7.71994183 6 13 C5.16416093 15.45948048 4.14717474 17.65785157 3 20 C1.125 19.75 1.125 19.75 -1 19 C-3.61361242 14.83656126 -3.5685914 10.77122349 -3 6 C-1.5 2.4375 -1.5 2.4375 0 0 Z " fill="#998AB7" transform="translate(233,5)"/>
<path d="M0 0 C2.02408755 0.09002398 4.04544287 0.24641038 6.0625 0.4375 C7.71958984 0.59025391 7.71958984 0.59025391 9.41015625 0.74609375 C10.26480469 0.82988281 11.11945313 0.91367187 12 1 C12.99 3.97 13.98 6.94 15 10 C6.585 10.495 6.585 10.495 -2 11 C-2.33 10.34 -2.66 9.68 -3 9 C-1.02 8.01 0.96 7.02 3 6 C1.68 4.35 0.36 2.7 -1 1 C-0.67 0.67 -0.34 0.34 0 0 Z " fill="#9788B7" transform="translate(200,58)"/>
<path d="M0 0 C5.78006308 5.07023077 8.50011716 13.50175738 9 21 C6 20 6 20 4.25 17.125 C1.52782873 13.34420657 -0.67230477 12.54560544 -5 11 C-6.34013497 10.34711373 -7.67741528 9.68774405 -9 9 C-6.36 8.34 -3.72 7.68 -1 7 C-0.67 4.69 -0.34 2.38 0 0 Z " fill="#F6F4F8" transform="translate(212,36)"/>
<path d="M0 0 C0.33 0 0.66 0 1 0 C1.33 2.31 1.66 4.62 2 7 C4.64 7.66 7.28 8.32 10 9 C10 9.33 10 9.66 10 10 C9.02160156 10.185625 9.02160156 10.185625 8.0234375 10.375 C1.60297227 11.89015404 -1.35419021 13.72551036 -4.84375 19.35546875 C-5.2253125 19.89816406 -5.606875 20.44085938 -6 21 C-6.66 21 -7.32 21 -8 21 C-7.72515803 13.85410873 -5.19871066 5.19871066 0 0 Z " fill="#F6F5F9" transform="translate(256,36)"/>
<path d="M0 0 C6.625 -0.25 6.625 -0.25 10 2 C10.375 4.5 10.375 4.5 10 7 C6.3558226 9.4294516 4.28758728 9.16179575 0 9 C0 6.03 0 3.06 0 0 Z " fill="#F3F3F3" transform="translate(295,115)"/>
<path d="M0 0 C1.90318884 2.85478326 2.4619099 4.41941308 3.125 7.6875 C3.29257813 8.49574219 3.46015625 9.30398437 3.6328125 10.13671875 C3.75398437 10.75160156 3.87515625 11.36648437 4 12 C4.66 12 5.32 12 6 12 C6.33 11.01 6.66 10.02 7 9 C6.38547486 14.53072626 6.38547486 14.53072626 4.5625 16.75 C4.046875 17.1625 3.53125 17.575 3 18 C2.34 18.66 1.68 19.32 1 20 C0.32942113 18.2097939 -0.3363469 16.41778511 -1 14.625 C-1.37125 13.62726563 -1.7425 12.62953125 -2.125 11.6015625 C-3 9 -3 9 -3 7 C-1.68 7 -0.36 7 1 7 C0.67 4.69 0.34 2.38 0 0 Z " fill="#272727" transform="translate(249,103)"/>
<path d="M0 0 C0.90492188 0.02320312 1.80984375 0.04640625 2.7421875 0.0703125 C4.10730469 0.09738281 4.10730469 0.09738281 5.5 0.125 C6.19867188 0.14820312 6.89734375 0.17140625 7.6171875 0.1953125 C7.6171875 2.1753125 7.6171875 4.1553125 7.6171875 6.1953125 C2.9971875 6.1953125 -1.6228125 6.1953125 -6.3828125 6.1953125 C-3.42554754 0.28078259 -3.42554754 0.28078259 0 0 Z " fill="#010101" transform="translate(341.3828125,123.8046875)"/>
<path d="M0 0 C0.33 0 0.66 0 1 0 C1 3.96 1 7.92 1 12 C2.65 12 4.3 12 6 12 C6 8.04 6 4.08 6 0 C6.33 0 6.66 0 7 0 C7.33 1.65 7.66 3.3 8 5 C8.33 5 8.66 5 9 5 C9 6.98 9 8.96 9 11 C10.65 10.67 12.3 10.34 14 10 C14.33 10.99 14.66 11.98 15 13 C9.03325384 14.32594359 3.07416385 14.0884587 -3 14 C-2.34 13.01 -1.68 12.02 -1 11 C-0.54227937 8.26127045 -0.54227937 8.26127045 -0.375 5.3125 C-0.30023438 4.31863281 -0.22546875 3.32476562 -0.1484375 2.30078125 C-0.09945312 1.54152344 -0.05046875 0.78226563 0 0 Z " fill="#9E90BB" transform="translate(231,48)"/>
<path d="M0 0 C3.0625 0.125 3.0625 0.125 5.0625 1.125 C5.25 3.5 5.25 3.5 5.0625 6.125 C2.0625 8.125 2.0625 8.125 -0.5625 7.8125 C-2.9375 7.125 -2.9375 7.125 -3.9375 6.125 C-4.0625 3.625 -4.0625 3.625 -3.9375 1.125 C-2.9375 0.125 -2.9375 0.125 0 0 Z " fill="#ACA0C5" transform="translate(233.9375,26.875)"/>
<path d="M0 0 C0.66 0.33 1.32 0.66 2 1 C2.6328125 2.92578125 2.6328125 2.92578125 3.125 5.3125 C3.29257813 6.09238281 3.46015625 6.87226562 3.6328125 7.67578125 C4 10 4 10 4 14 C1.69 14 -0.62 14 -3 14 C-2.40380045 9.13103697 -1.43023178 4.67209049 0 0 Z " fill="#D8D8D8" transform="translate(97,102)"/>
<path d="M0 0 C2.64 0 5.28 0 8 0 C8.625 2.375 8.625 2.375 9 5 C7 7 7 7 3.375 7.125 C2.26125 7.08375 1.1475 7.0425 0 7 C0 4.69 0 2.38 0 0 Z " fill="#F1F1F1" transform="translate(295,102)"/>
<path d="M0 0 C0.99 0 1.98 0 3 0 C2.98839844 0.71027344 2.97679687 1.42054687 2.96484375 2.15234375 C2.95582031 3.07144531 2.94679688 3.99054687 2.9375 4.9375 C2.92589844 5.85402344 2.91429687 6.77054688 2.90234375 7.71484375 C2.74050951 9.96593327 2.74050951 9.96593327 4 11 C6.32817964 11.36760731 8.6618385 11.70241581 11 12 C11 12.33 11 12.66 11 13 C7.7 13 4.4 13 1 13 C0.566875 11.2984375 0.566875 11.2984375 0.125 9.5625 C-0.24625 8.386875 -0.6175 7.21125 -1 6 C-1.66 5.67 -2.32 5.34 -3 5 C-1.125 1.125 -1.125 1.125 0 0 Z " fill="#8F7FB2" transform="translate(257,31)"/>
<path d="M0 0 C2.5625 0.1875 2.5625 0.1875 4.5625 2.1875 C4.5625 3.5075 4.5625 4.8275 4.5625 6.1875 C1.1875 6.8125 1.1875 6.8125 -2.4375 7.1875 C-3.0975 6.5275 -3.7575 5.8675 -4.4375 5.1875 C-3.69457547 0.28419811 -3.69457547 0.28419811 0 0 Z " fill="#9384B4" transform="translate(266.4375,33.8125)"/>
<path d="M0 0 C2.5 0.25 2.5 0.25 4.5 2.25 C3.96428571 5.78571429 3.96428571 5.78571429 2.5 7.25 C0.50041636 7.29080783 -1.50045254 7.29254356 -3.5 7.25 C-4.125 4.875 -4.125 4.875 -4.5 2.25 C-2.5 0.25 -2.5 0.25 0 0 Z " fill="#A699C1" transform="translate(202.5,33.75)"/>
<path d="M0 0 C3.3 0 6.6 0 10 0 C10.33 1.98 10.66 3.96 11 6 C10.34 5.01 9.68 4.02 9 3 C4.05 4.485 4.05 4.485 -1 6 C-1.33 5.34 -1.66 4.68 -2 4 C-1.34 2.68 -0.68 1.36 0 0 Z " fill="#313131" transform="translate(93,95)"/>
<path d="M0 0 C0.680625 0.309375 1.36125 0.61875 2.0625 0.9375 C5.36965912 2.13370649 8.51545878 2.59005397 12 3 C12 3.33 12 3.66 12 4 C8.37 4.33 4.74 4.66 1 5 C1.95865509 7.33075929 1.95865509 7.33075929 5 9 C1.62537285 8.45276317 -0.08235 7.9451 -3 6 C-2.42655063 3.13275314 -2.1385485 2.1385485 0 0 Z " fill="#1D1D1D" transform="translate(127,121)"/>
<path d="M0 0 C0.33 0 0.66 0 1 0 C1 8.91 1 17.82 1 27 C0.34 26.67 -0.32 26.34 -1 26 C-0.67 24.35 -0.34 22.7 0 21 C-3.16666667 22.83333333 -3.16666667 22.83333333 -5 26 C-5.6875 24.1875 -5.6875 24.1875 -6 22 C-4.75 20.25 -4.75 20.25 -3 19 C-2.01 19 -1.02 19 0 19 C0 12.73 0 6.46 0 0 Z " fill="#0D0D0D" transform="translate(334,96)"/>
<path d="M0 0 C3.15207323 0.41113999 5.98104753 0.99368251 9 2 C9 2.66 9 3.32 9 4 C8.01 4 7.02 4 6 4 C6.33 4.66 6.66 5.32 7 6 C7.13415472 8.6723621 7.04318541 11.32250488 7 14 C5.8278944 11.65578881 4.67638361 9.31055639 3.5625 6.9375 C2.2182755 4.41035794 1.14224039 2.83620604 -1 1 C-0.67 0.67 -0.34 0.34 0 0 Z " fill="#9586B5" transform="translate(211,6)"/>
<path d="M0 0 C0.33 0 0.66 0 1 0 C0.67 7.59 0.34 15.18 0 23 C-0.33 23 -0.66 23 -1 23 C-1.33 19.37 -1.66 15.74 -2 12 C-2.99 12.99 -3.98 13.98 -5 15 C-1.92482916 4.44191344 -1.92482916 4.44191344 0 0 Z " fill="#CECECE" transform="translate(263,107)"/>
<path d="M0 0 C2.31 0 4.62 0 7 0 C6.01 0.495 6.01 0.495 5 1 C6.32 2.65 7.64 4.3 9 6 C5.7 6 2.4 6 -1 6 C-0.67 4.02 -0.34 2.04 0 0 Z " fill="#F6F5F9" transform="translate(256,61)"/>
<path d="M0 0 C2.31 0 4.62 0 7 0 C7.33 1.98 7.66 3.96 8 6 C4.7 6 1.4 6 -2 6 C-0.68 4.35 0.64 2.7 2 1 C1.34 0.67 0.68 0.34 0 0 Z " fill="#F5F3F8" transform="translate(206,61)"/>
<path d="M0 0 C0.33 0.66 0.66 1.32 1 2 C0.34 2.928125 -0.32 3.85625 -1 4.8125 C-3.26574554 7.79636556 -3.26574554 7.79636556 -3 11 C-4.98 11 -6.96 11 -9 11 C-7.75596862 7.26790586 -5.82756102 5.69291525 -3 3 C-2.401875 2.401875 -1.80375 1.80375 -1.1875 1.1875 C-0.795625 0.795625 -0.40375 0.40375 0 0 Z " fill="#8F7FB2" transform="translate(259,16)"/>
<path d="M0 0 C0.99 0.33 1.98 0.66 3 1 C1.92949782 2.48847916 0.84307756 3.9655195 -0.25 5.4375 C-0.85328125 6.26121094 -1.4565625 7.08492187 -2.078125 7.93359375 C-4.10483324 10.11271704 -5.0991395 10.64701919 -8 11 C-7.04454634 9.53977837 -6.08553322 8.08188532 -5.125 6.625 C-4.59132813 5.81289063 -4.05765625 5.00078125 -3.5078125 4.1640625 C-2 2 -2 2 0 0 Z " fill="#EFEDF4" transform="translate(263,14)"/>
<path d="M0 0 C3.875 1.875 3.875 1.875 5 3 C5.34541851 5.33157492 5.67794257 7.66508361 6 10 C6.33 10.99 6.66 11.98 7 13 C5.109375 12.3515625 5.109375 12.3515625 3 11 C1.953125 8.3984375 1.953125 8.3984375 1.25 5.375 C1.00765625 4.37210938 0.7653125 3.36921875 0.515625 2.3359375 C0.34546875 1.56507812 0.1753125 0.79421875 0 0 Z " fill="#F1EFF4" transform="translate(217,10)"/>
<path d="M0 0 C-0.39649413 1.79623856 -0.81793452 3.58698435 -1.25 5.375 C-1.48203125 6.37273438 -1.7140625 7.37046875 -1.953125 8.3984375 C-3 11 -3 11 -5.109375 12.3515625 C-5.73328125 12.56554688 -6.3571875 12.77953125 -7 13 C-6.74379316 11.3934324 -6.46944129 9.7897517 -6.1875 8.1875 C-6.03667969 7.29417969 -5.88585937 6.40085937 -5.73046875 5.48046875 C-4.77666507 2.24161669 -3.59172422 0 0 0 Z " fill="#F5F3F8" transform="translate(252,10)"/>
<path d="M0 0 C0.33 0.61875 0.66 1.2375 1 1.875 C3.95608588 5.01584125 6.80920859 5.17558202 11 6 C11 6.33 11 6.66 11 7 C9.20866022 7.05391993 7.41686101 7.09275571 5.625 7.125 C4.62726563 7.14820313 3.62953125 7.17140625 2.6015625 7.1953125 C0 7 0 7 -2 5 C-2 3.68 -2 2.36 -2 1 C-1.34 0.67 -0.68 0.34 0 0 Z " fill="#EDEBF3" transform="translate(261,36)"/>
<path d="M0 0 C1.5 1.0625 1.5 1.0625 3 3 C3.1875 6.6875 3.1875 6.6875 3 10 C2.67 10 2.34 10 2 10 C1.67 8.35 1.34 6.7 1 5 C-0.65 5 -2.3 5 -4 5 C-4 6.98 -4 8.96 -4 11 C-4.99 10.67 -5.98 10.34 -7 10 C-6.34 10 -5.68 10 -5 10 C-5.226875 9.236875 -5.45375 8.47375 -5.6875 7.6875 C-6 5 -6 5 -4.75 3.1875 C-3 2 -3 2 0 2 C0 1.34 0 0.68 0 0 Z " fill="#232323" transform="translate(146,113)"/>
<path d="M0 0 C3.72617422 1.24205807 5.39291457 3.1110675 8 6 C8 6.66 8 7.32 8 8 C5.36 8 2.72 8 0 8 C0.33 7.01 0.66 6.02 1 5 C0.60602665 2.36195411 0.60602665 2.36195411 0 0 Z " fill="#8F80B0" transform="translate(211,19)"/>
<path d="M0 0 C2.48660455 0.3878678 3.72345219 0.70962479 5.484375 2.55859375 C5.90203125 3.17863281 6.3196875 3.79867188 6.75 4.4375 C7.17796875 5.05496094 7.6059375 5.67242188 8.046875 6.30859375 C9 8 9 8 9 10 C9.66 10.33 10.32 10.66 11 11 C8.12362154 10.64363453 7.10554032 10.11154668 5.078125 7.96875 C4.17320312 6.74671875 4.17320312 6.74671875 3.25 5.5 C2.63640625 4.6853125 2.0228125 3.870625 1.390625 3.03125 C0 1 0 1 0 0 Z " fill="#F0EEF4" transform="translate(203,14)"/>
<path d="M0 0 C0 2.64 0 5.28 0 8 C-1.65 8 -3.3 8 -5 8 C-5.25 5.6875 -5.25 5.6875 -5 3 C-1.79310345 0 -1.79310345 0 0 0 Z " fill="#060606" transform="translate(244,122)"/>
<path d="M0 0 C1.79378179 2.69067269 2.97313958 5.08578257 4.1875 8.0625 C4.55230469 8.94035156 4.91710937 9.81820312 5.29296875 10.72265625 C6 13 6 13 5 15 C4.01 14.67 3.02 14.34 2 14 C0.19113429 9.23982707 -0.20666253 5.06323209 0 0 Z " fill="#C5C5C5" transform="translate(244,107)"/>
<path d="M0 0 C0.99 0 1.98 0 3 0 C3.33 0.99 3.66 1.98 4 3 C3.2884375 3.61875 3.2884375 3.61875 2.5625 4.25 C0.83733482 6.182185 0.43415125 7.48192275 0 10 C-0.66 10 -1.32 10 -2 10 C-2.17942163 6.05272412 -2.09350689 3.4019487 0 0 Z " fill="#9081B0" transform="translate(233,5)"/>
<path d="M0 0 C0.33 0.99 0.66 1.98 1 3 C0.67 3.66 0.34 4.32 0 5 C-2.97 4.505 -2.97 4.505 -6 4 C-6.33 3.01 -6.66 2.02 -7 1 C-4.53721199 -0.231394 -2.7204945 -0.07159196 0 0 Z " fill="#030303" transform="translate(135,125)"/>
<path d="M0 0 C2.125 0.375 2.125 0.375 4 1 C3.67 2.32 3.34 3.64 3 5 C2.67 4.34 2.34 3.68 2 3 C1.2575 3.33 0.515 3.66 -0.25 4 C-3 5 -3 5 -7 5 C-7 4.01 -7 3.02 -7 2 C-6.21625 2.04125 -5.4325 2.0825 -4.625 2.125 C-1.83883881 2.28728734 -1.83883881 2.28728734 0 0 Z " fill="#8C7CAE" transform="translate(252,55)"/>
<path d="M0 0 C0.99 0.33 1.98 0.66 3 1 C3.33 3.31 3.66 5.62 4 8 C2.35 8.33 0.7 8.66 -1 9 C-0.34 8.67 0.32 8.34 1 8 C0.67 5.36 0.34 2.72 0 0 Z " fill="#9E90BC" transform="translate(220,49)"/>
<path d="M0 0 C2.44897847 3.67346771 2.31537716 5.66356399 2 10 C1.34 10.66 0.68 11.32 0 12 C-1.12256131 9.75487738 -1.13413762 8.48543351 -1.125 6 C-1.12886719 4.948125 -1.12886719 4.948125 -1.1328125 3.875 C-1 2 -1 2 0 0 Z " fill="#EBE9EF" transform="translate(234,9)"/>
<path d="M0 0 C0.33 0.66 0.66 1.32 1 2 C-2.74109799 3.24703266 -3.44429023 2.45460854 -7 1 C-9.32597511 0.6186926 -11.65912158 0.27539746 -14 0 C-14 -0.33 -14 -0.66 -14 -1 C-9.21221343 -2.54444728 -4.65769445 -1.64559039 0 0 Z " fill="#A092BD" transform="translate(213,48)"/>
<path d="M0 0 C0.99 0 1.98 0 3 0 C3 3 3 3 1.0625 5.0625 C0.381875 5.701875 -0.29875 6.34125 -1 7 C-1.33 7.66 -1.66 8.32 -2 9 C-2.66 9 -3.32 9 -4 9 C-3.3543999 5.51375944 -2.07639763 2.87501211 0 0 Z " fill="#9282B3" transform="translate(255,6)"/>
<path d="M0 0 C0.98120464 3.05263664 0.98120464 4.94736336 0 8 C0.66 8.33 1.32 8.66 2 9 C0.35 8.67 -1.3 8.34 -3 8 C-2.74438677 5.6568787 -2.40729228 3.32156597 -2 1 C-1.34 0.67 -0.68 0.34 0 0 Z " fill="#9E90BB" transform="translate(248,49)"/>
<path d="M0 0 C1.9375 0.6875 1.9375 0.6875 4 2 C4.75 4.625 4.75 4.625 5 7 C4.34 7 3.68 7 3 7 C2.67 8.32 2.34 9.64 2 11 C1.87625 9.906875 1.7525 8.81375 1.625 7.6875 C1.24535199 3.92618198 1.24535199 3.92618198 -1 1 C-0.67 0.67 -0.34 0.34 0 0 Z " fill="#9E91BA" transform="translate(220,9)"/>
<path d="M0 0 C0.86625 0.3403125 0.86625 0.3403125 1.75 0.6875 C-0.65436026 4.29404039 -2.19679607 4.54202932 -6.25 5.6875 C-6.25 4.6975 -6.25 3.7075 -6.25 2.6875 C-4.08146295 0.51896295 -3.10906228 -0.43181421 0 0 Z " fill="#9E90BB" transform="translate(252.25,7.3125)"/>
<path d="M0 0 C1.2065625 0.0309375 1.2065625 0.0309375 2.4375 0.0625 C2.1075 1.7125 1.7775 3.3625 1.4375 5.0625 C0.4475 5.0625 -0.5425 5.0625 -1.5625 5.0625 C-1.8925 4.4025 -2.2225 3.7425 -2.5625 3.0625 C-3.2225 3.7225 -3.8825 4.3825 -4.5625 5.0625 C-3.43829114 0.08386076 -3.43829114 0.08386076 0 0 Z " fill="#BAB0CF" transform="translate(266.5625,33.9375)"/>
<path d="M0 0 C0.66 1.32 1.32 2.64 2 4 C-0.3125 6.0625 -0.3125 6.0625 -3 8 C-3.99 7.67 -4.98 7.34 -6 7 C-4.02 4.69 -2.04 2.38 0 0 Z " fill="#9A8BB9" transform="translate(262,19)"/>
<path d="M0 0 C0.66 0.33 1.32 0.66 2 1 C-1.11910856 2.79275866 -3.67682428 3.34290718 -7.25 3.625 C-8.14203125 3.69976562 -9.0340625 3.77453125 -9.953125 3.8515625 C-10.62859375 3.90054688 -11.3040625 3.94953125 -12 4 C-12 3.01 -12 2.02 -12 1 C-11.07767578 1.01740234 -11.07767578 1.01740234 -10.13671875 1.03515625 C-8.92435547 1.04869141 -8.92435547 1.04869141 -7.6875 1.0625 C-6.88699219 1.07410156 -6.08648437 1.08570313 -5.26171875 1.09765625 C-2.83138666 1.09657855 -2.83138666 1.09657855 0 0 Z " fill="#D7D7D7" transform="translate(142,129)"/>
<path d="M0 0 C0.33 1.32 0.66 2.64 1 4 C1.66 4 2.32 4 3 4 C3 5.65 3 7.3 3 9 C2.01 9 1.02 9 0 9 C0 6.03 0 3.06 0 0 Z " fill="#A79AC1" transform="translate(230,11)"/>
<path d="M0 0 C0 3 0 3 -1 5 C-1.66 5 -2.32 5 -3 5 C-3 6.65 -3 8.3 -3 10 C-3.33 10 -3.66 10 -4 10 C-4.33 7.69 -4.66 5.38 -5 3 C-3.35 2.01 -1.7 1.02 0 0 Z " fill="#EAEAEA" transform="translate(153,112)"/>
<path d="M0 0 C0 2.64 0 5.28 0 8 C-2 7 -2 7 -3.125 3.9375 C-3.41375 2.968125 -3.7025 1.99875 -4 1 C-1 0 -1 0 0 0 Z " fill="#8574A7" transform="translate(13,83)"/>
<path d="M0 0 C0.33 1.32 0.66 2.64 1 4 C-1.95664519 5.4783226 -4.74229737 5.06032783 -8 5 C-5.36095629 3.58622659 -2.92879371 2.62759865 0 2 C0 1.34 0 0.68 0 0 Z " fill="#D3D3D3" transform="translate(140,119)"/>
<path d="M0 0 C1.875 0.25 1.875 0.25 4 1 C5.25 3.0625 5.25 3.0625 6 5 C4.35 5.33 2.7 5.66 1 6 C1.33 5.34 1.66 4.68 2 4 C1.10836423 1.88316159 1.10836423 1.88316159 0 0 Z " fill="#9687B6" transform="translate(212,50)"/>
<path d="M0 0 C2.4375 0.375 2.4375 0.375 5 1 C5.33 1.66 5.66 2.32 6 3 C3.69 3 1.38 3 -1 3 C-0.67 2.01 -0.34 1.02 0 0 Z " fill="#8675A8" transform="translate(129,182)"/>
</svg>
